<svg xmlns="http://www.w3.org/2000/svg" xmlns:xlink="http://www.w3.org/1999/xlink" width="500" zoomAndPan="magnify" viewBox="0 0 375 374.999991" height="500" preserveAspectRatio="xMidYMid meet" version="1.2"><defs><clipPath id="230f8c7f86"><path d="M 71.085938 166 L 85 166 L 85 215 L 71.085938 215 Z M 71.085938 166 "/></clipPath><clipPath id="ce90e8fc96"><path d="M 90 147.691406 L 104 147.691406 L 104 226.441406 L 90 226.441406 Z M 90 147.691406 "/></clipPath><clipPath id="766ee22bfc"><path d="M 128 150 L 142.335938 150 L 142.335938 205 L 128 205 Z M 128 150 "/></clipPath></defs><g id="e067bd1ad8"><path style="fill:none;stroke-width:4;stroke-linecap:butt;stroke-linejoin:miter;stroke:#fbbb11;stroke-opacity:1;stroke-miterlimit:4;" d="M 0.000653829 2.001059 L 14.074824 2.001059 " transform="matrix(0.748268,0,0,0.748268,241.972167,224.760484)"/><path style="fill:none;stroke-width:4;stroke-linecap:round;stroke-linejoin:round;stroke:#fbbb11;stroke-opacity:1;stroke-miterlimit:4;" d="M 25.074185 2.001059 L 19.075958 -4.002389 L 13.07773 2.001059 L 19.075958 7.999287 Z M 25.074185 2.001059 " transform="matrix(0.748268,0,0,0.748268,241.972167,224.760484)"/><path style="fill:none;stroke-width:4;stroke-linecap:butt;stroke-linejoin:miter;stroke:#5d16ea;stroke-opacity:1;stroke-miterlimit:4;" d="M 0.00241294 2.001618 L 202.863972 1.999363 " transform="matrix(0.749992,0.00347437,-0.00347437,0.749992,90.184832,224.010513)"/><path style="fill-rule:nonzero;fill:#5d16ea;fill-opacity:1;stroke-width:4;stroke-linecap:round;stroke-linejoin:round;stroke:#5d16ea;stroke-opacity:1;stroke-miterlimit:4;" d="M 213.864096 2.000488 L 207.867494 -3.997839 L 201.863958 1.998787 L 207.865793 8.002299 Z M 213.864096 2.000488 " transform="matrix(0.749992,0.00347437,-0.00347437,0.749992,90.184832,224.010513)"/><g clip-rule="nonzero" clip-path="url(#230f8c7f86)"><path style=" stroke:none;fill-rule:nonzero;fill:#5d16ea;fill-opacity:1;" d="M 84.691406 214.121094 L 71.28125 214.121094 L 71.28125 174.007812 L 84.691406 166.835938 Z M 84.691406 214.121094 "/></g><g clip-rule="nonzero" clip-path="url(#ce90e8fc96)"><path style=" stroke:none;fill-rule:nonzero;fill:#5d16ea;fill-opacity:1;" d="M 103.839844 226.074219 L 90.429688 226.074219 L 90.429688 154.886719 L 103.839844 147.714844 Z M 103.839844 226.074219 "/></g><path style=" stroke:none;fill-rule:nonzero;fill:#fbbb11;fill-opacity:1;" d="M 122.988281 218.902344 L 109.578125 218.902344 L 109.578125 174.007812 L 122.988281 166.835938 Z M 122.988281 218.902344 "/><g clip-rule="nonzero" clip-path="url(#766ee22bfc)"><path style=" stroke:none;fill-rule:nonzero;fill:#fbbb11;fill-opacity:1;" d="M 142.136719 204.558594 L 128.726562 204.558594 L 128.726562 157.277344 L 142.136719 150.105469 Z M 142.136719 204.558594 "/></g><g style="fill:#ffffff;fill-opacity:1;"><g transform="translate(146.454472, 180.65076)"><path style="stroke:none" d="M 19.40625 -4.03125 L 19.40625 0 L 2.578125 0 L 2.578125 -21.734375 L 19 -21.734375 L 19 -17.703125 L 7.578125 -17.703125 L 7.578125 -12.984375 L 17.671875 -12.984375 L 17.671875 -9.0625 L 7.578125 -9.0625 L 7.578125 -4.03125 Z M 19.40625 -4.03125 "/></g></g><g style="fill:#ffffff;fill-opacity:1;"><g transform="translate(166.968907, 180.65076)"><path style="stroke:none" d="M 23.46875 -21.734375 L 14.0625 0 L 9.09375 0 L -0.28125 -21.734375 L 5.15625 -21.734375 L 11.765625 -6.203125 L 18.46875 -21.734375 Z M 23.46875 -21.734375 "/></g></g><g style="fill:#ffffff;fill-opacity:1;"><g transform="translate(189.407456, 180.65076)"><path style="stroke:none" d="M 13.109375 0.375 C 10.847656 0.375 8.8125 -0.109375 7 -1.078125 C 5.1875 -2.054688 3.765625 -3.398438 2.734375 -5.109375 C 1.710938 -6.816406 1.203125 -8.734375 1.203125 -10.859375 C 1.203125 -12.992188 1.710938 -14.914062 2.734375 -16.625 C 3.765625 -18.332031 5.1875 -19.671875 7 -20.640625 C 8.8125 -21.617188 10.847656 -22.109375 13.109375 -22.109375 C 15.359375 -22.109375 17.382812 -21.617188 19.1875 -20.640625 C 20.988281 -19.671875 22.40625 -18.332031 23.4375 -16.625 C 24.476562 -14.914062 25 -12.992188 25 -10.859375 C 25 -8.734375 24.476562 -6.816406 23.4375 -5.109375 C 22.40625 -3.398438 20.988281 -2.054688 19.1875 -1.078125 C 17.382812 -0.109375 15.359375 0.375 13.109375 0.375 Z M 13.109375 -3.90625 C 14.390625 -3.90625 15.546875 -4.203125 16.578125 -4.796875 C 17.609375 -5.390625 18.421875 -6.210938 19.015625 -7.265625 C 19.609375 -8.316406 19.90625 -9.515625 19.90625 -10.859375 C 19.90625 -12.210938 19.609375 -13.414062 19.015625 -14.46875 C 18.421875 -15.519531 17.609375 -16.34375 16.578125 -16.9375 C 15.546875 -17.53125 14.390625 -17.828125 13.109375 -17.828125 C 11.816406 -17.828125 10.65625 -17.53125 9.625 -16.9375 C 8.59375 -16.34375 7.78125 -15.519531 7.1875 -14.46875 C 6.59375 -13.414062 6.296875 -12.210938 6.296875 -10.859375 C 6.296875 -9.515625 6.59375 -8.316406 7.1875 -7.265625 C 7.78125 -6.210938 8.59375 -5.390625 9.625 -4.796875 C 10.65625 -4.203125 11.816406 -3.90625 13.109375 -3.90625 Z M 13.109375 -3.90625 "/></g></g><g style="fill:#ffffff;fill-opacity:1;"><g transform="translate(215.601463, 180.65076)"><path style="stroke:none" d="M 2.578125 -21.734375 L 7.609375 -21.734375 L 7.609375 -4.09375 L 18.5 -4.09375 L 18.5 0 L 2.578125 0 Z M 2.578125 -21.734375 "/></g></g><g style="fill:#ffffff;fill-opacity:1;"><g transform="translate(232.825874, 180.65076)"><path style="stroke:none" d="M 23.46875 -21.734375 L 14.0625 0 L 9.09375 0 L -0.28125 -21.734375 L 5.15625 -21.734375 L 11.765625 -6.203125 L 18.46875 -21.734375 Z M 23.46875 -21.734375 "/></g></g><g style="fill:#ffffff;fill-opacity:1;"><g transform="translate(255.512764, 180.65076)"><path style="stroke:none" d="M 19.40625 -4.03125 L 19.40625 0 L 2.578125 0 L 2.578125 -21.734375 L 19 -21.734375 L 19 -17.703125 L 7.578125 -17.703125 L 7.578125 -12.984375 L 17.671875 -12.984375 L 17.671875 -9.0625 L 7.578125 -9.0625 L 7.578125 -4.03125 Z M 19.40625 -4.03125 "/></g></g><g style="fill:#ffffff;fill-opacity:1;"><g transform="translate(146.454472, 214.13585)"><path style="stroke:none" d="M 22.359375 0 L 22.328125 -13.046875 L 15.921875 -2.296875 L 13.65625 -2.296875 L 7.296875 -12.765625 L 7.296875 0 L 2.578125 0 L 2.578125 -21.734375 L 6.734375 -21.734375 L 14.875 -8.234375 L 22.875 -21.734375 L 27.015625 -21.734375 L 27.078125 0 Z M 22.359375 0 "/></g></g><g style="fill:#ffffff;fill-opacity:1;"><g transform="translate(176.093424, 214.13585)"><path style="stroke:none" d="M 19.40625 -4.03125 L 19.40625 0 L 2.578125 0 L 2.578125 -21.734375 L 19 -21.734375 L 19 -17.703125 L 7.578125 -17.703125 L 7.578125 -12.984375 L 17.671875 -12.984375 L 17.671875 -9.0625 L 7.578125 -9.0625 L 7.578125 -4.03125 Z M 19.40625 -4.03125 "/></g></g><g style="fill:#ffffff;fill-opacity:1;"><g transform="translate(196.918279, 214.13585)"><path style="stroke:none" d="M 2.578125 -21.734375 L 12.453125 -21.734375 C 14.804688 -21.734375 16.890625 -21.28125 18.703125 -20.375 C 20.515625 -19.476562 21.921875 -18.210938 22.921875 -16.578125 C 23.929688 -14.941406 24.4375 -13.035156 24.4375 -10.859375 C 24.4375 -8.691406 23.929688 -6.789062 22.921875 -5.15625 C 21.921875 -3.519531 20.515625 -2.25 18.703125 -1.34375 C 16.890625 -0.445312 14.804688 0 12.453125 0 L 2.578125 0 Z M 12.203125 -4.125 C 14.378906 -4.125 16.113281 -4.726562 17.40625 -5.9375 C 18.695312 -7.15625 19.34375 -8.796875 19.34375 -10.859375 C 19.34375 -12.929688 18.695312 -14.570312 17.40625 -15.78125 C 16.113281 -17 14.378906 -17.609375 12.203125 -17.609375 L 7.609375 -17.609375 L 7.609375 -4.125 Z M 12.203125 -4.125 "/></g></g><g style="fill:#ffffff;fill-opacity:1;"><g transform="translate(222.553641, 214.13585)"><path style="stroke:none" d="M 2.578125 -21.734375 L 7.609375 -21.734375 L 7.609375 0 L 2.578125 0 Z M 2.578125 -21.734375 "/></g></g><g style="fill:#ffffff;fill-opacity:1;"><g transform="translate(232.7333, 214.13585)"><path style="stroke:none" d="M 16.890625 -4.65625 L 6.796875 -4.65625 L 4.875 0 L -0.28125 0 L 9.40625 -21.734375 L 14.375 -21.734375 L 24.09375 0 L 18.8125 0 Z M 15.3125 -8.46875 L 11.859375 -16.796875 L 8.40625 -8.46875 Z M 15.3125 -8.46875 "/></g></g><path style=" stroke:none;fill-rule:nonzero;fill:#fbbb11;fill-opacity:1;" d="M 283.054688 229.183594 L 283.054688 226.1875 L 286.050781 226.1875 L 286.050781 229.183594 M 283.054688 223.191406 L 283.054688 220.195312 L 286.050781 220.195312 L 286.050781 223.191406 M 283.054688 217.199219 L 283.054688 214.203125 L 286.050781 214.203125 L 286.050781 217.199219 M 283.054688 211.207031 L 283.054688 208.214844 L 286.050781 208.214844 L 286.050781 211.207031 M 283.054688 205.21875 L 283.054688 202.222656 L 286.050781 202.222656 L 286.050781 205.21875 M 283.054688 199.226562 L 283.054688 196.230469 L 286.050781 196.230469 L 286.050781 199.226562 M 283.054688 193.234375 L 283.054688 190.238281 L 286.050781 190.238281 L 286.050781 193.234375 M 283.054688 187.242188 L 283.054688 184.246094 L 286.050781 184.246094 L 286.050781 187.242188 M 283.054688 181.25 L 283.054688 178.253906 L 286.050781 178.253906 L 286.050781 181.25 M 283.054688 175.257812 L 283.054688 172.265625 L 286.050781 172.265625 L 286.050781 175.257812 M 283.054688 169.269531 L 283.054688 166.273438 L 286.050781 166.273438 L 286.050781 169.269531 M 283.054688 163.277344 L 283.054688 160.28125 L 286.050781 160.28125 L 286.050781 163.277344 M 283.054688 157.285156 L 283.054688 154.289062 L 286.050781 154.289062 L 286.050781 157.285156 "/><path style="fill-rule:nonzero;fill:#fbbb11;fill-opacity:1;stroke-width:4;stroke-linecap:round;stroke-linejoin:round;stroke:#fbbb11;stroke-opacity:1;stroke-miterlimit:4;" d="M 101.163018 -4.002235 L 109.158632 2.000995 L 101.163018 7.99901 Z M 101.163018 -4.002235 " transform="matrix(0,-0.748946,0.748946,0,283.056051,229.183579)"/></g></svg>