<svg xmlns="http://www.w3.org/2000/svg" xmlns:xlink="http://www.w3.org/1999/xlink" width="500" zoomAndPan="magnify" viewBox="0 0 375 374.999991" height="500" preserveAspectRatio="xMidYMid meet" version="1.2"><defs><clipPath id="cb8947436f"><path d="M 138.113281 159 L 157 159 L 157 226 L 138.113281 226 Z M 138.113281 159 "/></clipPath><clipPath id="d6fd7e156d"><path d="M 164 133.152344 L 184 133.152344 L 184 241.902344 L 164 241.902344 Z M 164 133.152344 "/></clipPath></defs><g id="8295b7fd99"><g clip-rule="nonzero" clip-path="url(#cb8947436f)"><path style=" stroke:none;fill-rule:nonzero;fill:#5d16ea;fill-opacity:1;" d="M 156.976562 225.242188 L 138.386719 225.242188 L 138.386719 169.636719 L 156.976562 159.695312 Z M 156.976562 225.242188 "/></g><g clip-rule="nonzero" clip-path="url(#d6fd7e156d)"><path style=" stroke:none;fill-rule:nonzero;fill:#5d16ea;fill-opacity:1;" d="M 183.519531 241.8125 L 164.929688 241.8125 L 164.929688 143.128906 L 183.519531 133.1875 Z M 183.519531 241.8125 "/></g><path style=" stroke:none;fill-rule:nonzero;fill:#fbbb11;fill-opacity:1;" d="M 210.0625 231.871094 L 191.472656 231.871094 L 191.472656 169.636719 L 210.0625 159.695312 Z M 210.0625 231.871094 "/><path style=" stroke:none;fill-rule:nonzero;fill:#fbbb11;fill-opacity:1;" d="M 236.605469 211.988281 L 218.015625 211.988281 L 218.015625 146.441406 L 236.605469 136.5 Z M 236.605469 211.988281 "/></g></svg>